{
  "accessors": [
    {
      "bufferView": 2,
      "componentType": 5126,
      "count": 369,
      "max": [
        0.19031000137329102,
        0.2648020386695862,
        0.16685503721237183
      ],
      "min": [
        0.02405799925327301,
        0.23816806077957153,
        0.10028600692749023
      ],
      "type": "VEC3"
    },
    {
      "bufferView": 2,
      "byteOffset": 4428,
      "componentType": 5126,
      "count": 369,
      "max": [
        0.9697154760360718,
        0.9973351359367371,
        0.9979168772697449
      ],
      "min": [
        -0.9977108836174011,
        -0.9997186660766602,
        -0.9972305297851563
      ],
      "type": "VEC3"
    },
    {
      "bufferView": 3,
      "componentType": 5126,
      "count": 369,
      "max": [
        0.9987159967422485,
        0.9877364635467529,
        0.9899227619171143,
        1.0
      ],
      "min": [
        -0.9829844832420349,
        -0.999825656414032,
        -0.9990621209144592,
        1.0
      ],
      "type": "VEC4"
    },
    {
      "bufferView": 1,
      "componentType": 5126,
      "count": 369,
      "max": [
        0.9351840019226074,
        0.9999480247497559
      ],
      "min": [
        5.400000009103678e-05,
        0.00010599999950500205
      ],
      "type": "VEC2"
    },
    {
      "bufferView": 0,
      "componentType": 5125,
      "count": 1788,
      "type": "SCALAR"
    },
    {
      "bufferView": 2,
      "byteOffset": 8856,
      "componentType": 5126,
      "count": 184,
      "max": [
        0.12506899237632751,
        0.1315220594406128,
        0.069815993309021
      ],
      "min": [
        0.02961099147796631,
        0.09984803199768066,
        0.030414998531341553
      ],
      "type": "VEC3"
    },
    {
      "bufferView": 2,
      "byteOffset": 11064,
      "componentType": 5126,
      "count": 184,
      "max": [
        0.988987147808075,
        0.979549765586853,
        0.9982033371925354
      ],
      "min": [
        -0.9856024980545044,
        -0.9928713440895081,
        -0.9947322607040405
      ],
      "type": "VEC3"
    },
    {
      "bufferView": 3,
      "byteOffset": 5904,
      "componentType": 5126,
      "count": 184,
      "max": [
        0.9986487030982971,
        0.9982728362083435,
        0.9978789687156677,
        1.0
      ],
      "min": [
        -0.9975814819335938,
        -0.9485996961593628,
        -0.9967637062072754,
        -1.0
      ],
      "type": "VEC4"
    },
    {
      "bufferView": 1,
      "byteOffset": 2952,
      "componentType": 5126,
      "count": 184,
      "max": [
        0.9999949932098389,
        0.9303079843521118
      ],
      "min": [
        9.200000204145908e-05,
        7.300000288523734e-05
      ],
      "type": "VEC2"
    },
    {
      "bufferView": 0,
      "byteOffset": 7152,
      "componentType": 5125,
      "count": 870,
      "type": "SCALAR"
    },
    {
      "bufferView": 2,
      "byteOffset": 13272,
      "componentType": 5126,
      "count": 1778,
      "max": [
        0.21824300289154053,
        0.3487040400505066,
        0.21477800607681274
      ],
      "min": [
        0.013407990336418152,
        0.26687103509902954,
        0.02835303544998169
      ],
      "type": "VEC3"
    },
    {
      "bufferView": 2,
      "byteOffset": 34608,
      "componentType": 5126,
      "count": 1778,
      "max": [
        0.9944406151771545,
        0.9999282360076904,
        0.9985584616661072
      ],
      "min": [
        -0.9983603358268738,
        -0.9999765753746033,
        -0.9993632435798645
      ],
      "type": "VEC3"
    },
    {
      "bufferView": 3,
      "byteOffset": 8848,
      "componentType": 5126,
      "count": 1778,
      "max": [
        0.9998068809509277,
        0.9993054270744324,
        0.9979791641235352,
        1.0
      ],
      "min": [
        -0.9999459385871887,
        -0.9997324347496033,
        -0.9997804760932922,
        -1.0
      ],
      "type": "VEC4"
    },
    {
      "bufferView": 1,
      "byteOffset": 4424,
      "componentType": 5126,
      "count": 1778,
      "max": [
        0.9703840017318726,
        0.9999639987945557
      ],
      "min": [
        5.900000178371556e-05,
        4.999999873689376e-06
      ],
      "type": "VEC2"
    },
    {
      "bufferView": 0,
      "byteOffset": 10632,
      "componentType": 5125,
      "count": 8508,
      "type": "SCALAR"
    },
    {
      "bufferView": 2,
      "byteOffset": 55944,
      "componentType": 5126,
      "count": 26515,
      "max": [
        0.21247598528862,
        0.335110068321228,
        0.22340500354766846
      ],
      "min": [
        0.0,
        0.0,
        0.0
      ],
      "type": "VEC3"
    },
    {
      "bufferView": 2,
      "byteOffset": 374124,
      "componentType": 5126,
      "count": 26515,
      "max": [
        0.99997478723526,
        0.9999997615814209,
        0.9999882578849792
      ],
      "min": [
        -0.9999047517776489,
        -0.9999686479568481,
        -0.9999710917472839
      ],
      "type": "VEC3"
    },
    {
      "bufferView": 3,
      "byteOffset": 37296,
      "componentType": 5126,
      "count": 26515,
      "max": [
        0.9999359250068665,
        0.9999968409538269,
        0.9999991059303284,
        1.0
      ],
      "min": [
        -0.9999460577964783,
        -0.9999915361404419,
        -0.9999778866767883,
        -1.0
      ],
      "type": "VEC4"
    },
    {
      "bufferView": 1,
      "byteOffset": 18648,
      "componentType": 5126,
      "count": 26515,
      "max": [
        0.9999880194664001,
        0.9999359846115112
      ],
      "min": [
        6.000000212225132e-06,
        1.9999999949504854e-06
      ],
      "type": "VEC2"
    },
    {
      "bufferView": 0,
      "byteOffset": 44664,
      "componentType": 5125,
      "count": 105354,
      "type": "SCALAR"
    },
    {
      "bufferView": 2,
      "byteOffset": 692304,
      "componentType": 5126,
      "count": 455,
      "max": [
        0.1850299835205078,
        0.09592199325561523,
        0.17082899808883667
      ],
      "min": [
        0.025246992707252502,
        0.0030289888381958008,
        0.04371500015258789
      ],
      "type": "VEC3"
    },
    {
      "bufferView": 2,
      "byteOffset": 697764,
      "componentType": 5126,
      "count": 455,
      "max": [
        0.9975563287734985,
        0.9872774481773376,
        0.9929326176643372
      ],
      "min": [
        -0.9964215159416199,
        -0.9992108941078186,
        -0.9999703764915466
      ],
      "type": "VEC3"
    },
    {
      "bufferView": 3,
      "byteOffset": 461536,
      "componentType": 5126,
      "count": 455,
      "max": [
        0.958454966545105,
        0.9956436157226563,
        0.9999701380729675,
        1.0
      ],
      "min": [
        -0.9931827783584595,
        -0.9995360970497131,
        -0.9999206066131592,
        -1.0
      ],
      "type": "VEC4"
    },
    {
      "bufferView": 1,
      "byteOffset": 230768,
      "componentType": 5126,
      "count": 455,
      "max": [
        0.9999600052833557,
        0.994504988193512
      ],
      "min": [
        3.099999958067201e-05,
        0.00011800000356743112
      ],
      "type": "VEC2"
    },
    {
      "bufferView": 0,
      "byteOffset": 466080,
      "componentType": 5125,
      "count": 1914,
      "type": "SCALAR"
    }
  ],
  "asset": {
    "extras": {
      "author": "P3nT4gR4m (https://sketchfab.com/P3nT4gR4m)",
      "license": "CC-BY-4.0 (http://creativecommons.org/licenses/by/4.0/)",
      "source": "https://sketchfab.com/3d-models/karloff-monster-c02333ab037941ff936e002750030717",
      "title": "Karloff Monster"
    },
    "generator": "Sketchfab-12.64.0",
    "version": "2.0"
  },
  "bufferViews": [
    {
      "buffer": 0,
      "byteLength": 473736,
      "name": "floatBufferViews",
      "target": 34963
    },
    {
      "buffer": 0,
      "byteLength": 234408,
      "byteOffset": 473736,
      "byteStride": 8,
      "name": "floatBufferViews",
      "target": 34962
    },
    {
      "buffer": 0,
      "byteLength": 703224,
      "byteOffset": 708144,
      "byteStride": 12,
      "name": "floatBufferViews",
      "target": 34962
    },
    {
      "buffer": 0,
      "byteLength": 468816,
      "byteOffset": 1411368,
      "byteStride": 16,
      "name": "floatBufferViews",
      "target": 34962
    }
  ],
  "buffers": [
    {
      "byteLength": 1880184,
      "uri": "scene.bin"
    }
  ],
  "images": [
    {
      "uri": "textures/bolts_mtl_baseColor.png"
    },
    {
      "uri": "textures/bolts_mtl_normal.png"
    },
    {
      "uri": "textures/een_mtl_baseColor.png"
    },
    {
      "uri": "textures/een_mtl_normal.png"
    },
    {
      "uri": "textures/jumper_mtl_baseColor.png"
    },
    {
      "uri": "textures/jumper_mtl_normal.png"
    },
    {
      "uri": "textures/napper_mtl_baseColor.png"
    },
    {
      "uri": "textures/napper_mtl_normal.png"
    },
    {
      "uri": "textures/staples_mtl_baseColor.png"
    },
    {
      "uri": "textures/staples_mtl_normal.png"
    }
  ],
  "materials": [
    {
      "doubleSided": true,
      "name": "bolts_mtl",
      "normalTexture": {
        "index": 1
      },
      "pbrMetallicRoughness": {
        "baseColorTexture": {
          "index": 0
        },
        "roughnessFactor": 0.4346417682926829
      }
    },
    {
      "doubleSided": true,
      "name": "een_mtl",
      "normalTexture": {
        "index": 3
      },
      "pbrMetallicRoughness": {
        "baseColorTexture": {
          "index": 2
        },
        "metallicFactor": 0.0,
        "roughnessFactor": 0.1480564024390244
      }
    },
    {
      "doubleSided": true,
      "name": "jumper_mtl",
      "normalTexture": {
        "index": 5
      },
      "pbrMetallicRoughness": {
        "baseColorTexture": {
          "index": 4
        },
        "metallicFactor": 0.0,
        "roughnessFactor": 0.6
      }
    },
    {
      "doubleSided": true,
      "name": "napper_mtl",
      "normalTexture": {
        "index": 7
      },
      "pbrMetallicRoughness": {
        "baseColorTexture": {
          "index": 6
        },
        "metallicFactor": 0.0,
        "roughnessFactor": 0.5626905487804879
      }
    },
    {
      "doubleSided": true,
      "name": "staples_mtl",
      "normalTexture": {
        "index": 9
      },
      "pbrMetallicRoughness": {
        "baseColorTexture": {
          "index": 8
        },
        "roughnessFactor": 0.4712271341463415
      }
    }
  ],
  "meshes": [
    {
      "name": "Object_0",
      "primitives": [
        {
          "attributes": {
            "NORMAL": 1,
            "POSITION": 0,
            "TANGENT": 2,
            "TEXCOORD_0": 3
          },
          "indices": 4,
          "material": 0,
          "mode": 4
        }
      ]
    },
    {
      "name": "Object_1",
      "primitives": [
        {
          "attributes": {
            "NORMAL": 6,
            "POSITION": 5,
            "TANGENT": 7,
            "TEXCOORD_0": 8
          },
          "indices": 9,
          "material": 1,
          "mode": 4
        }
      ]
    },
    {
      "name": "Object_2",
      "primitives": [
        {
          "attributes": {
            "NORMAL": 11,
            "POSITION": 10,
            "TANGENT": 12,
            "TEXCOORD_0": 13
          },
          "indices": 14,
          "material": 2,
          "mode": 4
        }
      ]
    },
    {
      "name": "Object_3",
      "primitives": [
        {
          "attributes": {
            "NORMAL": 16,
            "POSITION": 15,
            "TANGENT": 17,
            "TEXCOORD_0": 18
          },
          "indices": 19,
          "material": 3,
          "mode": 4
        }
      ]
    },
    {
      "name": "Object_4",
      "primitives": [
        {
          "attributes": {
            "NORMAL": 21,
            "POSITION": 20,
            "TANGENT": 22,
            "TEXCOORD_0": 23
          },
          "indices": 24,
          "material": 4,
          "mode": 4
        }
      ]
    }
  ],
  "nodes": [
    {
      "children": [
        1
      ],
      "matrix": [
        1.1872792487356136,
        0.03760609949468918,
        -0.0008050857252751689,
        0.0,
        0.037155142789547124,
        -1.1764666604315224,
        -0.15997634132066832,
        0.0,
        -0.005861933249600659,
        0.15987095126022435,
        -1.1770529789337303,
        0.0,
        0.0345616415143013,
        -0.4448441863060001,
        1.499294638633728,
        1.0
      ],
      "name": "Sketchfab_model"
    },
    {
      "children": [
        2
      ],
      "matrix": [
        1.0,
        0.0,
        0.0,
        0.0,
        0.0,
        1.0,
        0.0,
        0.0,
        0.0,
        0.0,
        1.0,
        0.0,
        0.18015000224113464,
        -1.1736650466918945,
        0.5284929871559143,
        1.0
      ],
      "name": "karloff-frankenstein.obj.cleaner.materialmerger.gles"
    },
    {
      "children": [
        3,
        4,
        5,
        6,
        7
      ],
      "name": "Object_2"
    },
    {
      "mesh": 0,
      "name": "Object_3"
    },
    {
      "mesh": 1,
      "name": "Object_4"
    },
    {
      "mesh": 2,
      "name": "Object_5"
    },
    {
      "mesh": 3,
      "name": "Object_6"
    },
    {
      "mesh": 4,
      "name": "Object_7"
    }
  ],
  "samplers": [
    {
      "magFilter": 9729,
      "minFilter": 9987,
      "wrapS": 10497,
      "wrapT": 10497
    }
  ],
  "scene": 0,
  "scenes": [
    {
      "name": "Sketchfab_Scene",
      "nodes": [
        0
      ]
    }
  ],
  "textures": [
    {
      "sampler": 0,
      "source": 0
    },
    {
      "sampler": 0,
      "source": 1
    },
    {
      "sampler": 0,
      "source": 2
    },
    {
      "sampler": 0,
      "source": 3
    },
    {
      "sampler": 0,
      "source": 4
    },
    {
      "sampler": 0,
      "source": 5
    },
    {
      "sampler": 0,
      "source": 6
    },
    {
      "sampler": 0,
      "source": 7
    },
    {
      "sampler": 0,
      "source": 8
    },
    {
      "sampler": 0,
      "source": 9
    }
  ]
}
